# xmcd
#
# Track frame offsets:
#	150
#	13458
#	26325
#	39820
#	53987
#	66990
#	79848
#	93828
#	106271
#	120608
#	134107
#	147082
#	158380
#	170395
#	183763
#	196497
#	209557
#	223004
#	235554
#	248718
#	261799
#	275950
#
# Disc length: 3861 seconds
#
# Revision: 0
# Processed by: cddbd v1.5.2PL0 Copyright (c) Steve Scherf et al.
# Submitted via: audiograbber 1.83.01
#
DISCID=390f1316
DTITLE=Various Artist - The Ladies in Blues - CD4
DYEAR=1900
DGENRE=
TTITLE0=June Richmond: Hey Lawdy Mama
TTITLE1=Etta Jones: Long, Long Journey
TTITLE2=Helen Humes: He May Be Your Man
TTITLE3=Billie Holiday: Billie's Blues
TTITLE4=Dinah Washington: Blues For A Day
TTITLE5=June Richmond: Unlucky Blues
TTITLE6=Helen Humes: Pleasing Man Blues
TTITLE7=Sister Rosetta Tharpe: Shout, Sister, Shout!
TTITLE8=Billie Holiday: Baby I Don't Cry Over You
TTITLE9=Etta Jones: Evil Gal Blues
TTITLE10=Dinah Washinton: All Or Nothing Blues
TTITLE11=Helen Humes: They Raided The Joint
TTITLE12=Sister Rosetta Tharpe: That's All
TTITLE13=Etta Jones: Salty Papa Blues
TTITLE14=Dinah Washinton: Wise Woman Blues
TTITLE15=Sister Rosetta Tharpe: I Want A Tall Skinny Papa
TTITLE16=Helen Humes: Married Man Blues
TTITLE17=Etta Jones: I May Be Wunderful
TTITLE18=Dinah Washington: Rich Man's Blues
TTITLE19=Helen Humes: Today I Sing The Blues
TTITLE20=Dinah Washinton: Mellow Mama Blues
TTITLE21=Billie Holiday: Rocky Mountain Blues
EXTD=
EXTT0=
EXTT1=
EXTT2=
EXTT3=
EXTT4=
EXTT5=
EXTT6=
EXTT7=
EXTT8=
EXTT9=
EXTT10=
EXTT11=
EXTT12=
EXTT13=
EXTT14=
EXTT15=
EXTT16=
EXTT17=
EXTT18=
EXTT19=
EXTT20=
EXTT21=
PLAYORDER=
